# xmcd
#
# Track frame offsets:
#	150
#	24099
#	190513
#	220128
#	264153
#
# Disc length: 3882 seconds
#
# Revision: 0
# Processed by: cddbd v1.4PL0 Copyright (c) Steve Scherf et al.
# Submitted via: audiograbber 1.81.02
#
DISCID=320f2805
DTITLE=Allman Brothers Band - Oak Mountain Amphitheater - 1996-05-03 - Disc 2
DYEAR=1900
DGENRE=
TTITLE0=Stand Back
TTITLE1=True Gravity
TTITLE2=I Know I Oughta Leave (Warren)
TTITLE3=Stormy Monday
TTITLE4=End Of The Line
EXTD=
EXTT0=
EXTT1=
EXTT2=
EXTT3=
EXTT4=
PLAYORDER=
